<svg xmlns="http://www.w3.org/2000/svg" viewBox="0 0 500 500">
    <g id="freepik--Wallet--inject-6">
        <polygon points="364.24 119.81 372.53 124.59 372.53 138.96 364.24 134.17 364.24 119.81"
                 style="fill:#263238"></polygon>
        <path d="M357.88,85.17l-26.82,15.48v-31A4.15,4.15,0,0,0,324.71,66L192.06,142.61c-5.13,3-7.7,6.83-7.7,10.71V282.6c0,3.88,2.57,7.76,7.7,10.72l.18.11c10.26,5.92,26.88,5.92,37.14,0L362,216.85a4.94,4.94,0,0,0,2.21-3.83V86.29l-2.08-1.2A4.75,4.75,0,0,0,357.88,85.17Z"
              style="fill:#FFFFFF"></path>
        <path d="M192.06,164c-10.22-5.89-10.22-15.54,0-21.43L324.71,66a4.72,4.72,0,0,1,4.28-.08c1.14.66,1.08,1.77-.14,2.47L199.91,142.86c-1.22.71-3.22,1.83-4.35,2.68-6,4.49-6.52,10.48-1.37,14.72a20.77,20.77,0,0,0,4.39,2.57c7.4,3.09,18,2.78,25.87-.77,1.29-.58,3.26-1.74,4.48-2.44l129-74.45a4.75,4.75,0,0,1,4.28-.08c1.15.66,1.09,1.77-.13,2.48L229.38,164.15c-10.22,5.9-26.92,5.9-37.14,0Z"
              style="fill:#FFFFFF"></path>
        <path d="M192.06,164c-10.22-5.89-10.22-15.54,0-21.43L324.71,66a4.72,4.72,0,0,1,4.28-.08c1.14.66,1.08,1.77-.14,2.47L199.91,142.86c-1.22.71-3.22,1.83-4.35,2.68-6,4.49-6.52,10.48-1.37,14.72a20.77,20.77,0,0,0,4.39,2.57c7.4,3.09,18,2.78,25.87-.77,1.29-.58,3.26-1.74,4.48-2.44l129-74.45a4.75,4.75,0,0,1,4.28-.08c1.15.66,1.09,1.77-.13,2.48L229.38,164.15c-10.22,5.9-26.92,5.9-37.14,0Z"
              style="opacity:0.30000000000000004"></path>
        <path d="M188.73,171.76a.52.52,0,0,1-.33-.12,16.48,16.48,0,0,1-1.81-1.84.5.5,0,0,1,.77-.64,15.28,15.28,0,0,0,1.7,1.72.51.51,0,0,1,.05.71A.52.52,0,0,1,188.73,171.76Z"
              style="fill:#f5f5f5"></path>
        <path d="M212.42,178.62a.5.5,0,0,1-.5-.48.5.5,0,0,1,.49-.52,45,45,0,0,0,5-.45.5.5,0,0,1,.57.42.51.51,0,0,1-.42.57,47.22,47.22,0,0,1-5.08.46Zm-5-.1h0a43.24,43.24,0,0,1-5-.68.49.49,0,0,1-.4-.58.51.51,0,0,1,.59-.4,41.21,41.21,0,0,0,4.93.66.5.5,0,0,1,0,1Zm15-1.41a.5.5,0,0,1-.48-.37.49.49,0,0,1,.34-.61,32.78,32.78,0,0,0,4.66-1.7.49.49,0,0,1,.66.24.5.5,0,0,1-.24.67,33.66,33.66,0,0,1-4.81,1.75Zm-24.85-.54a.45.45,0,0,1-.16,0,30.38,30.38,0,0,1-4.7-2,.5.5,0,0,1,.47-.88,30.42,30.42,0,0,0,4.55,2,.5.5,0,0,1-.16,1Zm34-3.6a.5.5,0,0,1-.25-.93l4.37-2.52a.5.5,0,1,1,.5.86l-4.37,2.52A.45.45,0,0,1,231.52,173Zm8.74-5a.51.51,0,0,1-.44-.25A.5.5,0,0,1,240,167l4.36-2.53a.5.5,0,0,1,.68.19.49.49,0,0,1-.18.68l-4.36,2.52A.47.47,0,0,1,240.26,167.93Zm8.73-5a.5.5,0,0,1-.43-.25.51.51,0,0,1,.18-.69l4.36-2.52a.52.52,0,0,1,.69.19.5.5,0,0,1-.19.68l-4.36,2.52A.47.47,0,0,1,249,162.89Zm8.73-5a.5.5,0,0,1-.43-.25.51.51,0,0,1,.18-.69l4.37-2.52a.49.49,0,0,1,.68.19.5.5,0,0,1-.18.68L258,157.78A.55.55,0,0,1,257.72,157.85Zm8.73-5a.48.48,0,0,1-.43-.25.5.5,0,0,1,.18-.68l4.37-2.52a.49.49,0,0,1,.68.18.51.51,0,0,1-.18.69l-4.37,2.52A.54.54,0,0,1,266.45,152.8Zm8.73-5a.5.5,0,0,1-.25-.93l4.37-2.52a.49.49,0,0,1,.68.18.51.51,0,0,1-.18.69l-4.37,2.52A.54.54,0,0,1,275.18,147.76Zm8.74-5a.5.5,0,0,1-.25-.93l4.36-2.52a.5.5,0,0,1,.5.86l-4.36,2.53A.57.57,0,0,1,283.92,142.72Zm8.73-5a.52.52,0,0,1-.44-.25.51.51,0,0,1,.19-.68l4.36-2.52a.5.5,0,1,1,.5.86l-4.36,2.52A.47.47,0,0,1,292.65,137.68Zm8.73-5a.5.5,0,0,1-.25-.93l4.36-2.52a.51.51,0,0,1,.69.18.5.5,0,0,1-.19.68l-4.36,2.52A.47.47,0,0,1,301.38,132.64Zm8.73-5a.5.5,0,0,1-.25-.93l4.37-2.53a.51.51,0,0,1,.68.19.49.49,0,0,1-.18.68l-4.37,2.52A.45.45,0,0,1,310.11,127.6Zm8.73-5a.5.5,0,0,1-.43-.25.51.51,0,0,1,.18-.69L323,119.1a.51.51,0,0,1,.68.19.49.49,0,0,1-.18.68l-4.37,2.52A.45.45,0,0,1,318.84,122.56Zm8.73-5a.5.5,0,0,1-.43-.25.51.51,0,0,1,.18-.69l4.37-2.52a.49.49,0,0,1,.68.18.51.51,0,0,1-.18.69l-4.37,2.52A.55.55,0,0,1,327.57,117.52Zm8.74-5a.51.51,0,0,1-.44-.25.5.5,0,0,1,.19-.68l4.36-2.52a.49.49,0,0,1,.68.18.51.51,0,0,1-.18.69l-4.36,2.52A.57.57,0,0,1,336.31,112.47Zm8.73-5a.52.52,0,0,1-.44-.25.51.51,0,0,1,.19-.68l4.36-2.52a.5.5,0,1,1,.5.87l-4.36,2.52A.57.57,0,0,1,345,107.43Z"
              style="fill:#f5f5f5"></path>
        <path d="M355.94,103.64a.51.51,0,0,1-.5-.5V101.5l-1.41.82a.49.49,0,0,1-.68-.18.51.51,0,0,1,.18-.69l2.16-1.25a.5.5,0,0,1,.75.44v2.5A.5.5,0,0,1,355.94,103.64Z"
              style="fill:#f5f5f5"></path>
        <path d="M355.94,203.78a.51.51,0,0,1-.5-.5v-5a.5.5,0,0,1,.5-.5.5.5,0,0,1,.5.5v5A.5.5,0,0,1,355.94,203.78Zm0-10a.5.5,0,0,1-.5-.5v-5a.51.51,0,0,1,.5-.5.5.5,0,0,1,.5.5v5A.5.5,0,0,1,355.94,193.76Zm0-10a.51.51,0,0,1-.5-.5v-5a.5.5,0,0,1,.5-.5.5.5,0,0,1,.5.5v5A.5.5,0,0,1,355.94,183.75Zm0-10a.5.5,0,0,1-.5-.5v-5a.5.5,0,0,1,.5-.5.5.5,0,0,1,.5.5v5A.5.5,0,0,1,355.94,173.73Zm0-10a.5.5,0,0,1-.5-.5v-5a.51.51,0,0,1,.5-.5.5.5,0,0,1,.5.5v5A.5.5,0,0,1,355.94,163.72Zm0-10a.51.51,0,0,1-.5-.5v-5a.5.5,0,0,1,.5-.5.5.5,0,0,1,.5.5v5A.5.5,0,0,1,355.94,153.71Zm0-10a.5.5,0,0,1-.5-.5v-5a.5.5,0,0,1,.5-.5.5.5,0,0,1,.5.5v5A.5.5,0,0,1,355.94,143.69Zm0-10a.51.51,0,0,1-.5-.5v-5a.5.5,0,0,1,.5-.5.5.5,0,0,1,.5.5v5A.5.5,0,0,1,355.94,133.68Zm0-10a.5.5,0,0,1-.5-.5v-5a.5.5,0,0,1,.5-.5.5.5,0,0,1,.5.5v5A.5.5,0,0,1,355.94,123.66Zm0-10a.5.5,0,0,1-.5-.5v-5a.51.51,0,0,1,.5-.5.5.5,0,0,1,.5.5v5A.5.5,0,0,1,355.94,113.65Z"
              style="fill:#f5f5f5"></path>
        <path d="M353.78,212.53a.5.5,0,0,1-.25-.93l1.91-1.11v-2.21a.51.51,0,0,1,.5-.5.5.5,0,0,1,.5.5v2.5a.5.5,0,0,1-.25.44L354,212.47A.57.57,0,0,1,353.78,212.53Z"
              style="fill:#f5f5f5"></path>
        <path d="M212.44,288.77a.5.5,0,0,1,0-1,42.71,42.71,0,0,0,5-.46.51.51,0,0,1,.57.42.5.5,0,0,1-.42.57,44.8,44.8,0,0,1-5.08.47Zm-5-.1h0a43.83,43.83,0,0,1-5.05-.68.5.5,0,0,1-.4-.58.51.51,0,0,1,.59-.4,41.77,41.77,0,0,0,4.93.66.5.5,0,0,1,0,1Zm15-1.42a.49.49,0,0,1-.48-.36.5.5,0,0,1,.34-.62,32.34,32.34,0,0,0,4.66-1.7.49.49,0,0,1,.66.25.49.49,0,0,1-.24.66,33.52,33.52,0,0,1-4.8,1.75A.36.36,0,0,1,222.38,287.25Zm-24.85-.53a.45.45,0,0,1-.16,0,30.92,30.92,0,0,1-4.7-2,.5.5,0,0,1,.47-.88,31.47,31.47,0,0,0,4.55,2,.5.5,0,0,1-.16,1Zm34-3.61a.5.5,0,0,1-.25-.93l4.37-2.52a.5.5,0,0,1,.5.86L231.78,283A.45.45,0,0,1,231.53,283.11Zm8.74-5a.5.5,0,0,1-.44-.25.49.49,0,0,1,.19-.68l4.36-2.52a.5.5,0,1,1,.5.86L240.52,278A.47.47,0,0,1,240.27,278.07Zm8.73-5a.51.51,0,0,1-.44-.25.5.5,0,0,1,.19-.68l4.36-2.53a.52.52,0,0,1,.69.19.51.51,0,0,1-.19.68L249.25,273A.47.47,0,0,1,249,273Zm8.73-5a.5.5,0,0,1-.43-.25.51.51,0,0,1,.18-.69l4.36-2.52a.51.51,0,0,1,.69.19.5.5,0,0,1-.19.68L258,267.92A.47.47,0,0,1,257.73,268Zm8.73-5a.5.5,0,0,1-.43-.25.51.51,0,0,1,.18-.69l4.37-2.52a.5.5,0,0,1,.5.87l-4.37,2.52A.55.55,0,0,1,266.46,263Zm8.73-5.05a.48.48,0,0,1-.43-.25.5.5,0,0,1,.18-.68l4.37-2.52a.5.5,0,0,1,.5.87l-4.37,2.52A.54.54,0,0,1,275.19,257.9Zm8.73-5a.5.5,0,0,1-.43-.25.5.5,0,0,1,.18-.68l4.37-2.52a.5.5,0,1,1,.5.86l-4.37,2.53A.51.51,0,0,1,283.92,252.86Zm8.74-5a.5.5,0,0,1-.25-.93l4.36-2.52a.5.5,0,1,1,.5.86l-4.36,2.52A.47.47,0,0,1,292.66,247.82Zm8.73-5a.5.5,0,0,1-.25-.93l4.36-2.52a.5.5,0,1,1,.5.86l-4.36,2.52A.47.47,0,0,1,301.39,242.78Zm8.73-5a.5.5,0,0,1-.25-.93l4.37-2.52a.5.5,0,1,1,.5.86l-4.37,2.52A.47.47,0,0,1,310.12,237.74Zm8.73-5a.5.5,0,0,1-.43-.25.51.51,0,0,1,.18-.69l4.37-2.52a.51.51,0,0,1,.68.19.49.49,0,0,1-.18.68l-4.37,2.52A.45.45,0,0,1,318.85,232.7Zm8.73-5a.5.5,0,0,1-.43-.25.51.51,0,0,1,.18-.69l4.37-2.52a.5.5,0,0,1,.5.87l-4.37,2.52A.45.45,0,0,1,327.58,227.66Zm8.73-5a.5.5,0,0,1-.43-.25.51.51,0,0,1,.18-.69l4.37-2.52a.49.49,0,0,1,.68.18.51.51,0,0,1-.18.69l-4.37,2.52A.52.52,0,0,1,336.31,222.62Zm8.74-5.05a.51.51,0,0,1-.44-.25.51.51,0,0,1,.19-.68l4.36-2.52a.51.51,0,0,1,.69.18.52.52,0,0,1-.19.69l-4.36,2.52A.57.57,0,0,1,345.05,217.57Z"
              style="fill:#f5f5f5"></path>
        <path d="M188.73,281.9a.52.52,0,0,1-.33-.12,16.41,16.41,0,0,1-1.81-1.83.52.52,0,0,1,.06-.71.51.51,0,0,1,.71.07,15.28,15.28,0,0,0,1.7,1.72.49.49,0,0,1,.05.7A.48.48,0,0,1,188.73,281.9Z"
              style="fill:#f5f5f5"></path>
        <path d="M331.06,93.83V78.76a3.92,3.92,0,0,0-1.77-3.07,1.08,1.08,0,0,1,0,2L191.62,157.22a10.44,10.44,0,0,0,2.58,3,21,21,0,0,0,4.38,2.57,31.3,31.3,0,0,0,12.86,2.1l117.86-68A3.92,3.92,0,0,0,331.06,93.83Z"
              style="fill:#e0e0e0"></path>
        <path d="M329.29,75.69l-.61-.35a3.92,3.92,0,0,0-3.53,0L190.71,153a7.34,7.34,0,0,0,.91,4.26L329.29,77.74A1.08,1.08,0,0,0,329.29,75.69Z"
              style="fill:#ebebeb"></path>
        <path d="M339.36,83.54a3.94,3.94,0,0,0-1.77-3.06l-.61-.35a3.94,3.94,0,0,0-3.54,0l-139,80.28a21.64,21.64,0,0,0,4.19,2.42c7.41,3.09,18,2.78,25.87-.78,1.29-.58,3.26-1.72,4.48-2.42L339.36,95.87Z"
              style="fill:#e0e0e0"></path>
        <path d="M198.53,162.81,337.59,82.52a1.08,1.08,0,0,0,0-2l-.61-.35a3.94,3.94,0,0,0-3.54,0l-139,80.28A21.91,21.91,0,0,0,198.53,162.81Z"
              style="fill:#ebebeb"></path>
        <path d="M347.65,88.33a3.89,3.89,0,0,0-1.77-3.06l-.61-.36a3.94,3.94,0,0,0-3.54,0L204.06,164.4a36,36,0,0,0,20.39-2.35c1.29-.58,3.26-1.72,4.48-2.42L347.65,91.08Z"
              style="fill:#e0e0e0"></path>
        <path d="M345.88,85.27l-.61-.36a3.94,3.94,0,0,0-3.54,0L204.06,164.4a35.18,35.18,0,0,0,7.38.53L345.88,87.31A1.08,1.08,0,0,0,345.88,85.27Z"
              style="fill:#ebebeb"></path>
        <path d="M380.82,131.43v29.43a3.92,3.92,0,0,1-1.76,3.06l-53.7,31-.1,0c-4.06,2.31-7.74,2.61-10.43,1.22-.82-.42-4-2.25-4.74-2.75-2.43-1.57-3.91-4.67-3.91-9,0-9,6.31-19.93,14.24-25h0l50.33-29.05.26-.18c.71-.57.62-1.35-.26-1.86l-6.52-3.77v-4.79l14.82,8.56a3.92,3.92,0,0,1,1.73,2.71A2.07,2.07,0,0,1,380.82,131.43Z"
              style="fill:#FFFFFF"></path>
        <path d="M380.82,131.43v29.43a3.92,3.92,0,0,1-1.76,3.06l-53.7,31-.1,0c-4.06,2.31-7.74,2.61-10.43,1.22-.82-.42-4-2.25-4.74-2.75-2.43-1.57-3.91-4.67-3.91-9,0-9,6.31-19.93,14.24-25h0l50.33-29.05.26-.18c.71-.57.62-1.35-.26-1.86l-6.52-3.77v-4.79l14.82,8.56a3.92,3.92,0,0,1,1.73,2.71A2.07,2.07,0,0,1,380.82,131.43Z"
              style="opacity:0.30000000000000004"></path>
        <path d="M380.82,131.43v29.43a3.92,3.92,0,0,1-1.76,3.06l-53.7,31-.1,0c-5.29,3-9.94,2.61-12.6-.5a11.61,11.61,0,0,1-2.33-7.64c0-9.26,6.73-20.64,15-25.44l51.32-29.62,2.38-1.37c.87-.51,1.59-.21,1.73.67A2.07,2.07,0,0,1,380.82,131.43Z"
              style="fill:#FFFFFF"></path>
        <path d="M322.77,179.66c0,4,2.78,5.57,6.22,3.59a13.73,13.73,0,0,0,6.22-10.77c0-4-2.79-5.58-6.22-3.59A13.72,13.72,0,0,0,322.77,179.66Z"
              style="fill:#37474f"></path>
        <polygon points="335.43 169.63 333.58 168.57 324.59 183.68 326.7 184.9 335.43 169.63"
                 style="fill:#37474f"></polygon>
        <path d="M324.84,180.86c0,4,2.79,5.57,6.22,3.59a13.75,13.75,0,0,0,6.22-10.78c0-4-2.78-5.57-6.22-3.59A13.78,13.78,0,0,0,324.84,180.86Z"
              style="fill:#455a64"></path>
    </g>
    <g id="freepik--Card--inject-6">
        <path d="M137.24,398.94a4.75,4.75,0,0,1-2.07-3.75V275.8a4.86,4.86,0,0,1,2.21-3.82l153.15-88.43a4.15,4.15,0,0,1,6.36,3.67V306.61a4.9,4.9,0,0,1-2.21,3.83L141.53,398.86A4.74,4.74,0,0,1,137.24,398.94Z"
              style="fill:#455a64"></path>
        <path d="M143.46,278l-7.64-4.41a4.5,4.5,0,0,0-.65,2.17V395.19a4.15,4.15,0,0,0,6.36,3.67l1.93-1.12Z"
              style="fill:#263238"></path>
        <path d="M139.32,278.2V397.59c0,1.41,1,2,2.21,1.27l153.15-88.42a4.9,4.9,0,0,0,2.21-3.83V187.22c0-1.41-1-2-2.21-1.27L141.53,274.37A4.88,4.88,0,0,0,139.32,278.2Z"
              style="fill:#37474f"></path>
        <path d="M151.76,309.32v18.84c0,1.41,1,2,2.21,1.27l24.6-14.2a4.87,4.87,0,0,0,2.21-3.83V292.56c0-1.41-1-2-2.21-1.27L154,305.49A4.9,4.9,0,0,0,151.76,309.32Z"
              style="fill:#FFFFFF"></path>
        <path d="M180.78,297.77v-1.15l-29,16.75v1.16l7.79-4.5v8.46l-7.79,4.5v1.15l29-16.75v-1.16l-7.79,4.5v-8.46ZM172,311.31l-11.44,6.6v-8.46l11.44-6.6Z"
              style="fill:#f5f5f5"></path>
        <path d="M157.28,287.06v1.64a5,5,0,0,1-2.49,4.53c-1.64.95-2.5.31-2.5-1.65v-6.4a5,5,0,0,1,2.5-4.53c1.64-.94,2.49-.31,2.49,1.65v1.2l-1.58.91v-1.32c0-.87-.33-1-.87-.71a1.81,1.81,0,0,0-.86,1.72v6.63c0,.88.33,1,.86.7a1.77,1.77,0,0,0,.87-1.7V288Z"
              style="fill:#fff"></path>
        <path d="M161.8,289a3.51,3.51,0,0,1-.15-1.42v-1.93c0-1.15-.34-1.38-1.1-.94l-.57.34v5l-1.68,1V278.77l2.53-1.46c1.73-1,2.48-.5,2.48,1.39v1a4.49,4.49,0,0,1-1.1,3.13c.84-.08,1.11.69,1.11,2v1.9a3.45,3.45,0,0,0,.18,1.39ZM160,279.55v3.78l.65-.38a1.94,1.94,0,0,0,1-1.88v-1.21c0-.88-.26-1.11-.85-.77Z"
              style="fill:#fff"></path>
        <path d="M166.09,279.45l2.3-1.33v1.76l-2.3,1.33v3.6l2.89-1.67v1.75l-4.56,2.64V275.24L169,272.6v1.76L166.09,276Z"
              style="fill:#fff"></path>
        <path d="M170,272l2.65-1.52c1.67-1,2.49-.37,2.49,1.59v6.22a4.87,4.87,0,0,1-2.49,4.48L170,284.3Zm1.68.79v8.79l.94-.55a1.75,1.75,0,0,0,.85-1.68V273c0-.88-.32-1-.85-.7Z"
              style="fill:#fff"></path>
        <path d="M176.22,268.42l1.67-1v12.29l-1.67,1Z" style="fill:#fff"></path>
        <path d="M178.62,267l5.17-3v1.75l-1.75,1v10.54l-1.67,1V267.78l-1.75,1Z" style="fill:#fff"></path>
        <path d="M191.73,267.17v1.64a5,5,0,0,1-2.49,4.53c-1.64,1-2.49.31-2.49-1.65v-6.4a5,5,0,0,1,2.49-4.53c1.64-.95,2.49-.31,2.49,1.65v1.2l-1.58.91V263.2c0-.87-.33-1-.86-.71a1.8,1.8,0,0,0-.87,1.72v6.63c0,.88.33,1,.87.7a1.78,1.78,0,0,0,.86-1.7v-1.75Z"
              style="fill:#fff"></path>
        <path d="M198.17,268l-1.69,1-.29-2.07-2.05,1.19-.29,2.4-1.54.88,1.7-13.27,2.45-1.42Zm-3.82-1.69,1.61-.93-.8-5.75Z"
              style="fill:#fff"></path>
        <path d="M202.44,265.58a3.62,3.62,0,0,1-.15-1.43v-1.93c0-1.14-.33-1.37-1.1-.93l-.57.33v5l-1.68,1V255.3l2.53-1.46c1.73-1,2.48-.5,2.48,1.4v1a4.44,4.44,0,0,1-1.1,3.12c.84-.08,1.11.7,1.11,2v1.89a3.26,3.26,0,0,0,.19,1.39Zm-1.82-9.49v3.78l.65-.38a2,2,0,0,0,1-1.88V256.4c0-.88-.25-1.12-.85-.77Z"
              style="fill:#fff"></path>
        <path d="M205.06,251.77l2.65-1.53c1.67-1,2.49-.37,2.49,1.6v6.22a4.87,4.87,0,0,1-2.49,4.48l-2.65,1.52Zm1.67.79v8.78l.94-.54a1.74,1.74,0,0,0,.86-1.69v-6.39c0-.88-.32-1-.86-.7Z"
              style="fill:#fff"></path>
        <path d="M151.76,345.24v4.47c0,1.41,1,2,2.21,1.27l24.6-14.2a4.9,4.9,0,0,0,2.21-3.83v-4.47c0-1.41-1-2-2.21-1.28L154,341.41A4.88,4.88,0,0,0,151.76,345.24Z"
              style="fill:#e0e0e0"></path>
        <path d="M186.31,325.28v4.47c0,1.41,1,2,2.21,1.28l24.61-14.21a4.86,4.86,0,0,0,2.21-3.82v-4.48c0-1.41-1-2-2.21-1.27l-24.61,14.2A4.9,4.9,0,0,0,186.31,325.28Z"
              style="fill:#e0e0e0"></path>
        <path d="M220.87,305.33v4.47c0,1.41,1,2,2.21,1.28l24.6-14.21A4.87,4.87,0,0,0,249.9,293v-4.47c0-1.41-1-2-2.22-1.27l-24.6,14.2A4.9,4.9,0,0,0,220.87,305.33Z"
              style="fill:#e0e0e0"></path>
        <path d="M255.42,285.38v4.47c0,1.41,1,2,2.21,1.28l24.61-14.21a4.9,4.9,0,0,0,2.21-3.83v-4.47c0-1.41-1-2-2.21-1.28l-24.61,14.21A4.88,4.88,0,0,0,255.42,285.38Z"
              style="fill:#e0e0e0"></path>
        <path d="M270.68,290.78,265,294a2.94,2.94,0,0,0-1.32,2.3v1.73c0,.84.59,1.18,1.32.76l5.64-3.26a2.91,2.91,0,0,0,1.33-2.29v-1.73C272,290.7,271.42,290.35,270.68,290.78Z"
              style="fill:#FFFFFF"></path>
        <path d="M283.12,283.59l-5.64,3.26a2.93,2.93,0,0,0-1.32,2.3v1.72c0,.85.59,1.19,1.32.77l5.64-3.26a2.91,2.91,0,0,0,1.33-2.3v-1.72C284.45,283.51,283.86,283.17,283.12,283.59Z"
              style="fill:#FFFFFF"></path>
        <path d="M211.91,336.68l70.22-40.54c1.22-.71,2.21-.14,2.21,1.27v2.08a4.9,4.9,0,0,1-2.21,3.83l-70.22,40.54c-1.22.71-2.21.13-2.21-1.28v-2.07A4.88,4.88,0,0,1,211.91,336.68Z"
              style="fill:#FFFFFF"></path>
    </g>
</svg>